<mxfile host="app.diagrams.net" modified="2024-04-29T05:15:07.345Z" agent="Mozilla/5.0 (Windows NT 10.0; Win64; x64) AppleWebKit/537.36 (KHTML, like Gecko) Chrome/124.0.0.0 Safari/537.36" version="24.2.5" etag="YdGqhoRZu8i0dl-ETt3s" type="github">
  <diagram name="第 1 页" id="-F6jKk_YcnXrx11b_FGc">
    <mxGraphModel>
      <root>
        <mxCell id="0" />
        <mxCell id="1" parent="0" />
      </root>
    </mxGraphModel>
  </diagram>
</mxfile>
